<?xml version="1.0" encoding="utf-8"?>
<!-- Svg Vector Icons : http://www.onlinewebfonts.com/icon -->
<!DOCTYPE svg PUBLIC "-//W3C//DTD SVG 1.1//EN" "http://www.w3.org/Graphics/SVG/1.1/DTD/svg11.dtd">
<svg version="1.1" xmlns="http://www.w3.org/2000/svg" xmlns:xlink="http://www.w3.org/1999/xlink" x="0px" y="0px" viewBox="0 0 256 256" enable-background="new 0 0 256 256" xml:space="preserve">
<metadata> Svg Vector Icons : http://www.onlinewebfonts.com/icon </metadata>
<g><g><path fill="#000000" d="M103.2,204.3C61.1,204.3,27,170.1,27,128c0-42.1,34.1-76.3,76.3-76.3c26.4,0,49.8,13.5,63.4,33.9h19.6c-15.4-30.2-46.8-50.9-83.1-50.9C51.7,34.8,10,76.5,10,128s41.7,93.2,93.2,93.2c36.2,0,67.6-20.7,83.1-50.9h-19.6C153,190.8,129.7,204.3,103.2,204.3z"/><path fill="#000000" d="M245.1,125.9l-38.5-37.3c-0.8-0.8-1.5-0.5-1.5,0.7v30.3h-84.9c-4.7,0-8.5,3.8-8.5,8.5s3.8,8.5,8.5,8.5h84.9v30.3c0,1.2,0.7,1.5,1.5,0.7l38.5-37.1C246.3,129.1,246.3,127.1,245.1,125.9z"/></g></g>
</svg>